<?xml version="1.0" encoding="iso-8859-1"?>
<!-- Generator: Adobe Illustrator 19.0.0, SVG Export Plug-In . SVG Version: 6.00 Build 0)  -->
<svg xmlns="http://www.w3.org/2000/svg" xmlns:xlink="http://www.w3.org/1999/xlink" version="1.1" id="Capa_1" x="0px" y="0px" viewBox="0 0 338.898 338.898" style="enable-background:new 0 0 338.898 338.898;" xml:space="preserve" width="512px" height="512px">
<g>
	<g>
		<g>
			<path d="M122.654,110.036c-11.604,0-21.044,9.44-21.044,21.044s9.44,21.044,21.044,21.044s21.043-9.44,21.043-21.044     S134.258,110.036,122.654,110.036z M122.654,142.124c-6.09,0-11.044-4.954-11.044-11.044c0-6.09,4.954-11.044,11.044-11.044     c6.089,0,11.043,4.954,11.043,11.044C133.697,137.17,128.743,142.124,122.654,142.124z" fill="#FFFFFF"/>
			<path d="M192.177,170.201c-16.026,0-29.065,13.039-29.065,29.065c0,16.027,13.039,29.066,29.065,29.066     s29.065-13.039,29.065-29.066C221.242,183.24,208.203,170.201,192.177,170.201z M192.177,218.331     c-10.512,0-19.065-8.552-19.065-19.066c0-10.512,8.552-19.065,19.065-19.065c10.512,0,19.065,8.553,19.065,19.065     C211.242,209.778,202.689,218.331,192.177,218.331z" fill="#FFFFFF"/>
			<path d="M266.379,210.309c-12.709,0-23.049,10.34-23.049,23.05c0,12.709,10.34,23.049,23.049,23.049     c12.71,0,23.05-10.34,23.05-23.049C289.429,220.649,279.089,210.309,266.379,210.309z M266.379,246.408     c-7.195,0-13.049-5.853-13.049-13.049c0-7.196,5.854-13.05,13.049-13.05s13.05,5.855,13.05,13.05     C279.429,240.554,273.574,246.408,266.379,246.408z" fill="#FFFFFF"/>
			<path d="M322.513,87.817c-0.039-0.099-0.08-0.196-0.125-0.291c-0.179-0.386-0.404-0.743-0.667-1.063     c-0.475-0.579-1.082-1.057-1.795-1.381c-0.108-0.049-0.22-0.095-0.332-0.137l-65.285-24.857c-0.731-0.279-1.516-0.38-2.296-0.301     L12.559,84.654c-0.502,0.046-0.984,0.167-1.433,0.351c-0.661,0.271-1.246,0.677-1.726,1.181c0,0.003-0.003,0.002-0.004,0.004     c-0.51,0.537-0.903,1.187-1.135,1.911c-0.001,0.003-0.001,0.005-0.002,0.007c0,0.001-0.001,0.002-0.001,0.003     c-0.138,0.43-0.218,0.884-0.233,1.352l-0.948,21.822c-0.073,1.661,0.685,3.249,2.022,4.237c0.885,0.654,1.942,0.996,3.017,0.979     c0.512,0,22,0.131,35.507,13.565c7.435,7.396,11.205,17.631,11.205,30.425c0,44.029-49.242,47.425-51.444,47.554     c-0.001,0-0.002,0-0.002,0c-0.004,0-0.008,0-0.012,0c-0.006,0.001-0.01,0-0.014,0.001c-1.251,0.075-2.369,0.606-3.199,1.421     c-0.002,0.002-0.004,0.003-0.005,0.005c-0.001,0-0.002,0.001-0.003,0.002c-0.123,0.122-0.241,0.25-0.351,0.383     c-0.685,0.831-1.105,1.882-1.14,3.021l-2.653,61.041c-0.059,1.362,0.441,2.69,1.384,3.675s2.248,1.542,3.611,1.542h58.894     c1.372,0,2.684-0.564,3.627-1.559c0.944-0.995,1.438-2.334,1.366-3.704l-0.031-0.498c-0.012-0.191-0.029-0.382-0.029-0.576     c0-11.25,9.152-20.402,20.402-20.402s20.402,9.152,20.402,20.402c0,0.194-0.016,0.385-0.029,0.576l-0.031,0.498     c-0.072,1.37,0.422,2.709,1.366,3.704c0.943,0.996,2.255,1.559,3.627,1.559h195.267c1.701,0,3.286-0.865,4.208-2.297     c1.014-1.579,24.859-39.296,24.859-93.618C338.898,129.779,323.388,90.016,322.513,87.817z M251.861,69.858l38.808,14.776     H109.576L251.861,69.858z M37.96,209.798c20.193-9.998,30.867-27.048,30.867-49.305c0-15.588-4.783-28.23-14.216-37.577     c-2.985-2.958-6.239-5.383-9.574-7.371c20.351,6.265,35.182,25.244,35.182,47.624c0,27.419-22.269,49.736-49.67,49.815     C32.97,212.087,35.463,211.034,37.96,209.798z M306.979,269.136H119.412c-1.813-15.043-14.658-26.74-30.183-26.74     s-28.37,11.695-30.183,26.739H10.221l2.128-48.936c5.817,1.848,11.863,2.782,18.053,2.782c32.982,0,59.816-26.833,59.816-59.815     S63.384,103.35,30.402,103.35c-4.407,0-8.768,0.481-13.034,1.433l0.44-10.15h296.551c3.621,10.35,14.537,45.161,14.537,88.589     C328.896,227.181,311.95,260.353,306.979,269.136z" fill="#FFFFFF"/>
			<path d="M291.113,114.046c-13.078,0-23.718,10.64-23.718,23.718s10.64,23.718,23.718,23.718s23.718-10.64,23.718-23.718     S304.191,114.046,291.113,114.046z M291.113,151.483c-7.565,0-13.718-6.153-13.718-13.718s6.154-13.718,13.718-13.718     c7.565,0,13.718,6.153,13.718,13.718S298.678,151.483,291.113,151.483z" fill="#FFFFFF"/>
		</g>
	</g>
</g>
<g>
</g>
<g>
</g>
<g>
</g>
<g>
</g>
<g>
</g>
<g>
</g>
<g>
</g>
<g>
</g>
<g>
</g>
<g>
</g>
<g>
</g>
<g>
</g>
<g>
</g>
<g>
</g>
<g>
</g>
</svg>
